# xmcd
#
# Track frame offsets:
#	150
#	10257
#	19126
#	28361
#	40322
#	51012
#	58661
#	68534
#	76151
#	86800
#	93481
#	101955
#	107585
#	118406
#
# Disc length: 1723 seconds
#
# Revision: 0
# Processed by: cddbd v1.4PL0 Copyright (c) Steve Scherf et al.
# Submitted via: audiograbber 1.80
#
DISCID=ba06b90e
DTITLE=Johnny Cash - At His Best - CD 2
DYEAR=1900
DGENRE=
TTITLE0=Was There When It Happened
TTITLE1=Life Goes On
TTITLE2=Down The Street To 301
TTITLE3=Goodnight Irene
TTITLE4=Fools Hall Of Fame
TTITLE5=Hey Good Lookin
TTITLE6=I Could Never Be Ashamed Of You
TTITLE7=If The Good Lords Willing
TTITLE8=I Just Thought You'd Like To Know
TTITLE9=Leave That Junk Alone
TTITLE10=I Forgot To Remember To Forget
TTITLE11=My Treasure
TTITLE12=I Heard That Lonesome Whistle
TTITLE13=Wide Open Road
EXTD=
EXTT0=
EXTT1=
EXTT2=
EXTT3=
EXTT4=
EXTT5=
EXTT6=
EXTT7=
EXTT8=
EXTT9=
EXTT10=
EXTT11=
EXTT12=
EXTT13=
PLAYORDER=
